<svg width="128" height="128" viewBox="0 0 128 128" fill="none" xmlns="http://www.w3.org/2000/svg">
  <rect width="128" height="128" rx="30" fill="#030406"/>
  <circle cx="64" cy="64" r="46" fill="#42d392" opacity="0.35" filter="url(#symGlow)"/>
  <path d="M45,20 L68,20 A40 40 0 0 1 108,60 L108,77 A31 31 0 0 1 77,108 L60,108 A40 40 0 0 1 20,68 L20,45 A25 25 0 0 1 45,20 Z" fill="url(#symGrad)"/>
  <ellipse cx="48" cy="42" rx="14" ry="9" fill="#ffffff" opacity="0.28" filter="url(#symSheen)"/>
  <defs>
    <linearGradient id="symGrad" x1="20" y1="20" x2="108" y2="108" gradientUnits="userSpaceOnUse">
      <stop stop-color="#42d392"/>
      <stop offset="1" stop-color="#35a479"/>
    </linearGradient>
    <filter id="symGlow" x="-50%" y="-50%" width="200%" height="200%">
      <feGaussianBlur stdDeviation="10"/>
    </filter>
    <filter id="symSheen" x="-100%" y="-100%" width="300%" height="300%">
      <feGaussianBlur stdDeviation="6"/>
    </filter>
  </defs>
</svg>
